<svg width="100%" height="100%" viewBox="0 0 100 100" version="1.1" xmlns="http://www.w3.org/2000/svg" xmlns:xlink="http://www.w3.org/1999/xlink" xml:space="preserve" xmlns:serif="http://www.serif.com/" style="fill-rule:evenodd;clip-rule:evenodd;stroke-linejoin:round;stroke-miterlimit:2;">
    <circle cx="50" cy="50" r="50" style="fill:url(#_Linear1);"/>
    <g transform="matrix(0.75,0,0,1,17.5,0)">
        <path d="M35.757,32.879C34.621,32.31 33.16,32.258 31.956,32.741C30.752,33.224 30,34.165 30,35.19L30,64.469C30,65.56 30.801,66.564 32.085,67.079C33.368,67.594 34.925,67.537 36.136,66.932C44.081,62.959 57.771,56.115 65.074,52.463C66.172,51.914 66.831,50.99 66.831,50C66.831,49.01 66.172,48.086 65.074,47.537C57.653,43.827 43.639,36.819 35.757,32.879Z" style="fill:white;"/>
    </g>
    <defs>
        <linearGradient id="_Linear1" x1="0" y1="0" x2="1" y2="0" gradientUnits="userSpaceOnUse" gradientTransform="matrix(100,0,0,100,0,50)"><stop offset="0" style="stop-color:rgb(243,81,77);stop-opacity:1"/><stop offset="1" style="stop-color:rgb(246,127,58);stop-opacity:1"/></linearGradient>
    </defs>
</svg>
