<?xml version="1.0" encoding="UTF-8" standalone="no"?>
<!DOCTYPE svg PUBLIC "-//W3C//DTD SVG 1.1//EN" "http://www.w3.org/Graphics/SVG/1.1/DTD/svg11.dtd">
<svg width="100%" height="100%" viewBox="0 0 1875 398" version="1.1" xmlns="http://www.w3.org/2000/svg" xmlns:xlink="http://www.w3.org/1999/xlink" xml:space="preserve" xmlns:serif="http://www.serif.com/" style="fill-rule:evenodd;clip-rule:evenodd;stroke-linejoin:round;stroke-miterlimit:1.41421;">
    <g transform="matrix(1,0,0,1,-4822,-5689)">
        <g transform="matrix(1,0,0,1,2646,4881.85)">
            <g transform="matrix(1.6087,0,0,1.6087,-1680.43,-1405.91)">
                <g transform="matrix(1.09113,0,0,1.09494,-735.198,775.503)">
                    <g transform="matrix(1.10075,0,0,1.10075,-2308.05,-551.239)">
                        <path d="M5462.03,1141.92L5438.02,1141.92L5432.16,1200L5426.02,1200L5445.84,1004.83L5455.05,1004.83L5475.16,1200L5468.18,1200L5462.03,1141.92ZM5438.58,1136.62L5461.48,1136.62L5450.31,1026.61L5450.03,1026.61L5438.58,1136.62Z" style="fill:white;fill-rule:nonzero;stroke:rgb(247,243,238);stroke-width:0.52px;"/>
                        <path d="M5506.99,1201.67C5504.75,1201.67 5502.47,1201.26 5500.15,1200.42C5497.82,1199.58 5495.77,1198.23 5494,1196.37C5492.23,1194.51 5490.74,1192.04 5489.53,1188.97C5488.32,1185.9 5487.72,1182.22 5487.72,1177.94L5487.72,1004.83L5494.7,1004.83L5494.7,1176.83C5494.7,1183.71 5496.05,1188.55 5498.75,1191.35C5501.45,1194.14 5504.38,1195.53 5507.54,1195.53L5510.06,1195.53C5513.22,1195.53 5516.15,1194.14 5518.85,1191.35C5521.55,1188.55 5522.9,1183.71 5522.9,1176.83L5522.9,1004.83L5529.88,1004.83L5529.88,1177.94C5529.88,1186.51 5527.83,1192.6 5523.74,1196.23C5519.64,1199.86 5515.27,1201.67 5510.61,1201.67L5506.99,1201.67Z" style="fill:white;fill-rule:nonzero;stroke:rgb(247,243,238);stroke-width:0.52px;"/>
                        <path d="M5547.75,1200L5547.75,1004.83L5570.65,1004.83C5572.88,1004.83 5575.16,1005.21 5577.49,1005.95C5579.81,1006.69 5581.91,1007.9 5583.77,1009.58C5585.63,1011.25 5587.12,1013.53 5588.24,1016.42C5589.35,1019.31 5589.91,1022.89 5589.91,1027.17L5589.91,1177.66C5589.91,1181.94 5589.35,1185.53 5588.24,1188.41C5587.12,1191.3 5585.63,1193.58 5583.77,1195.25C5581.91,1196.93 5579.81,1198.14 5577.49,1198.88C5575.16,1199.63 5572.88,1200 5570.65,1200L5547.75,1200ZM5554.73,1010.98L5554.73,1193.86L5570.09,1193.86C5573.25,1193.86 5576.18,1192.65 5578.88,1190.23C5581.58,1187.81 5582.93,1183.25 5582.93,1176.55L5582.93,1028.29C5582.93,1021.59 5581.58,1017.02 5578.88,1014.61C5576.18,1012.19 5573.25,1010.98 5570.09,1010.98L5554.73,1010.98Z" style="fill:white;fill-rule:nonzero;stroke:rgb(247,243,238);stroke-width:0.52px;"/>
                        <rect x="5607.78" y="1004.83" width="6.98" height="195.167" style="fill:white;fill-rule:nonzero;stroke:rgb(247,243,238);stroke-width:0.52px;"/>
                        <path d="M5651.9,1201.67C5647.24,1201.67 5642.87,1199.86 5638.77,1196.23C5634.68,1192.6 5632.63,1186.51 5632.63,1177.94L5632.63,1026.89C5632.63,1018.33 5634.68,1012.23 5638.77,1008.6C5642.87,1004.97 5647.24,1003.16 5651.9,1003.16L5655.53,1003.16C5657.76,1003.16 5660.04,1003.58 5662.37,1004.41C5664.69,1005.25 5666.74,1006.65 5668.51,1008.6C5670.28,1010.56 5671.77,1013.02 5672.98,1016C5674.19,1018.98 5674.79,1022.61 5674.79,1026.89L5674.79,1177.94C5674.79,1182.22 5674.19,1185.85 5672.98,1188.83C5671.77,1191.81 5670.28,1194.28 5668.51,1196.23C5666.74,1198.18 5664.69,1199.58 5662.37,1200.42C5660.04,1201.26 5657.76,1201.67 5655.53,1201.67L5651.9,1201.67ZM5652.45,1009.3C5649.29,1009.3 5646.36,1010.74 5643.66,1013.63C5640.96,1016.51 5639.61,1021.31 5639.61,1028.01L5639.61,1176.83C5639.61,1183.71 5640.96,1188.55 5643.66,1191.35C5646.36,1194.14 5649.29,1195.53 5652.45,1195.53L5654.97,1195.53C5658.13,1195.53 5661.06,1194.14 5663.76,1191.35C5666.46,1188.55 5667.81,1183.71 5667.81,1176.83L5667.81,1028.01C5667.81,1021.31 5666.46,1016.51 5663.76,1013.63C5661.06,1010.74 5658.13,1009.3 5654.97,1009.3L5652.45,1009.3Z" style="fill:white;fill-rule:nonzero;stroke:rgb(247,243,238);stroke-width:0.52px;"/>
                    </g>
                    <g transform="matrix(1.10075,0,0,1.10075,-2627.37,-551.239)">
                        <path d="M5437.44,1200L5414.27,1072.4L5413.71,1072.4L5413.71,1200L5395.56,1200L5395.56,1004.83L5420.13,1004.83L5441.91,1129.92L5441.91,1004.83L5461.74,1004.83L5461.74,1200L5437.44,1200Z" style="fill:white;fill-rule:nonzero;stroke:rgb(247,243,238);stroke-width:0.52px;"/>
                        <path d="M5496.36,1023.26L5496.36,1094.18L5515.34,1094.18L5515.34,1110.65L5496.36,1110.65L5496.36,1181.57L5522.32,1181.57L5522.32,1200L5474.58,1200L5474.58,1004.83L5520.65,1004.83L5520.65,1023.26L5496.36,1023.26Z" style="fill:white;fill-rule:nonzero;stroke:rgb(247,243,238);stroke-width:0.52px;"/>
                        <path d="M5574.26,1004.83L5593.24,1004.83L5575.65,1200L5547.73,1200L5529.58,1004.83L5550.52,1004.83L5561.97,1139.97L5562.81,1139.97L5574.26,1004.83Z" style="fill:white;fill-rule:nonzero;stroke:rgb(247,243,238);stroke-width:0.52px;"/>
                        <rect x="5602.46" y="1004.83" width="21.778" height="195.167" style="fill:white;fill-rule:nonzero;stroke:rgb(247,243,238);stroke-width:0.52px;"/>
                        <path d="M5672.82,1083.29L5672.82,1034.43C5672.82,1029.59 5672.26,1026.24 5671.14,1024.38C5670.03,1022.52 5668.44,1021.59 5666.4,1021.59L5665.28,1021.59C5663.23,1021.59 5661.65,1022.56 5660.53,1024.52C5659.42,1026.47 5658.86,1029.87 5658.86,1034.71L5658.86,1058.16C5658.86,1067.28 5660.72,1075.1 5664.44,1081.62C5668.16,1088.13 5672.26,1094.41 5676.73,1100.46C5681.19,1106.51 5685.29,1112.84 5689.01,1119.45C5692.73,1126.06 5694.6,1134.01 5694.6,1143.32L5694.6,1173.48C5694.6,1178.5 5693.85,1182.78 5692.36,1186.32C5690.87,1189.86 5688.92,1192.74 5686.5,1194.97C5684.08,1197.21 5681.29,1198.88 5678.12,1200C5674.96,1201.12 5671.7,1201.67 5668.35,1201.67L5664.16,1201.67C5660.81,1201.67 5657.56,1201.16 5654.39,1200.14C5651.23,1199.12 5648.34,1197.44 5645.73,1195.11C5643.13,1192.79 5641.03,1189.86 5639.45,1186.32C5637.87,1182.78 5637.08,1178.5 5637.08,1173.48L5637.08,1121.26L5656.9,1121.26L5656.9,1170.12C5656.9,1174.96 5657.65,1178.36 5659.14,1180.32C5660.63,1182.27 5662.39,1183.25 5664.44,1183.25L5665.56,1183.25C5667.61,1183.25 5669.33,1182.27 5670.72,1180.32C5672.12,1178.36 5672.82,1174.96 5672.82,1170.12L5672.82,1146.67C5672.82,1137.55 5670.96,1129.73 5667.23,1123.22C5663.51,1116.7 5659.42,1110.42 5654.95,1104.37C5650.48,1098.32 5646.39,1091.99 5642.66,1085.38C5638.94,1078.78 5637.08,1070.82 5637.08,1061.51L5637.08,1031.36C5637.08,1026.33 5637.87,1022.05 5639.45,1018.51C5641.03,1014.98 5643.08,1012.09 5645.6,1009.86C5648.11,1007.62 5650.95,1005.95 5654.11,1004.83C5657.28,1003.72 5660.44,1003.16 5663.6,1003.16L5666.4,1003.16C5669.75,1003.16 5672.96,1003.72 5676.03,1004.83C5679.1,1005.95 5681.89,1007.62 5684.4,1009.86C5686.92,1012.09 5688.92,1014.98 5690.41,1018.51C5691.9,1022.05 5692.64,1026.33 5692.64,1031.36L5692.64,1083.29L5672.82,1083.29Z" style="fill:white;fill-rule:nonzero;stroke:rgb(247,243,238);stroke-width:0.52px;"/>
                    </g>
                </g>
                <g transform="matrix(0.621622,0,0,0.621622,-600.216,-2160.72)">
                    <g id="Logo">
                        <path d="M4824.88,6072.8L5131.26,5707.46C5140.84,5696.04 5153.98,5689.63 5167.69,5689.44C5181.42,5689.24 5194.7,5695.29 5204.53,5706.44L5527.07,6072.75L5527.21,6072.9L5527.34,6073.07L5527.47,6073.23L5527.59,6073.4L5527.7,6073.56L5527.82,6073.73L5527.92,6073.9L5528.03,6074.08L5528.12,6074.25L5528.22,6074.43L5528.3,6074.61L5528.39,6074.79L5528.47,6074.97L5528.54,6075.16L5528.61,6075.34L5528.67,6075.53L5528.73,6075.72L5528.79,6075.9L5528.84,6076.1L5528.89,6076.28L5528.93,6076.48L5528.96,6076.67L5528.99,6076.86L5529.02,6077.05L5529.05,6077.25L5529.06,6077.44L5529.08,6077.64L5529.08,6077.83L5529.09,6078.02L5529.09,6078.22L5529.08,6078.41L5529.07,6078.61L5529.06,6078.8L5529.04,6078.99L5529.01,6079.19L5528.99,6079.38L5528.95,6079.57L5528.91,6079.76L5528.87,6079.95L5528.83,6080.14L5528.78,6080.33L5528.72,6080.51L5528.66,6080.7L5528.59,6080.88L5528.52,6081.07L5528.45,6081.25L5528.37,6081.43L5528.29,6081.61L5528.2,6081.78L5528.11,6081.96L5528.01,6082.13L5527.91,6082.3L5527.81,6082.47L5527.69,6082.64L5527.58,6082.8L5527.46,6082.96L5527.34,6083.12L5527.21,6083.28L5527.08,6083.44L5526.94,6083.59L5526.8,6083.73L5526.65,6083.88L5526.5,6084.02L5526.35,6084.16L5526.19,6084.3L5526.03,6084.43L5525.86,6084.56L5525.7,6084.68L5525.53,6084.8L5525.36,6084.91L5525.19,6085.02L5525.02,6085.12L5524.84,6085.22L5524.66,6085.31L5524.48,6085.4L5524.3,6085.48L5524.12,6085.56L5523.94,6085.63L5523.75,6085.7L5523.56,6085.77L5523.38,6085.83L5523.19,6085.88L5523,6085.93L5522.81,6085.98L5522.62,6086.02L5522.43,6086.06C5522.43,6086.06 5522.42,6086.06 5522.42,6086.06C5519.86,6086.51 5517.14,6085.72 5515.21,6083.74L5515.07,6083.59L5514.93,6083.44C5514.93,6083.44 5357.09,5904.19 5357.09,5904.19C5347.87,5893.72 5334.45,5889.95 5322.24,5894.72L4834.08,6085.57L4834.07,6085.58L4833.98,6085.61L4833.93,6085.64L4833.91,6085.64L4833.88,6085.65L4833.76,6085.7L4833.74,6085.71L4833.73,6085.71C4833.53,6085.78 4833.32,6085.85 4833.11,6085.9L4833.11,6085.9L4832.98,6085.94L4832.93,6085.95L4832.93,6085.95C4832.75,6085.99 4832.57,6086.03 4832.39,6086.06L4832.37,6086.07L4832.36,6086.07L4832.33,6086.07L4832.22,6086.09L4832.17,6086.1L4832.15,6086.1L4832.13,6086.11L4832.06,6086.11L4831.97,6086.13L4831.94,6086.13L4831.94,6086.13L4831.9,6086.13C4831.19,6086.21 4830.47,6086.2 4829.78,6086.09L4829.77,6086.09L4829.69,6086.07L4829.61,6086.06L4829.61,6086.06C4828.94,6085.95 4828.29,6085.75 4827.66,6085.46L4827.51,6085.4L4827.49,6085.38L4827.48,6085.38L4827.42,6085.35L4827.33,6085.31L4827.32,6085.3L4827.3,6085.29L4827.19,6085.23L4827.16,6085.21L4827.15,6085.21C4827.01,6085.14 4826.88,6085.06 4826.74,6084.97L4826.74,6084.97L4826.72,6084.96L4826.61,6084.89L4826.58,6084.87L4826.57,6084.86L4826.52,6084.83L4826.44,6084.78L4826.43,6084.77L4826.41,6084.75L4826.31,6084.69L4826.28,6084.66L4826.27,6084.66C4826.1,6084.53 4825.93,6084.4 4825.76,6084.26L4825.76,6084.26L4825.72,6084.22L4825.62,6084.14L4825.62,6084.14C4825.44,6083.97 4825.26,6083.8 4825.09,6083.62L4825.07,6083.6L4825.06,6083.59L4825.04,6083.57L4824.98,6083.5L4824.94,6083.45L4824.92,6083.43L4824.91,6083.42L4824.87,6083.38L4824.81,6083.3L4824.78,6083.27L4824.78,6083.27L4824.76,6083.25L4824.68,6083.15L4824.66,6083.12L4824.56,6082.99L4824.54,6082.97L4824.54,6082.96L4824.5,6082.91L4824.44,6082.83L4824.43,6082.81L4824.42,6082.8L4824.36,6082.71L4824.32,6082.66L4824.32,6082.65L4824.3,6082.63L4824.22,6082.51L4824.21,6082.49C4824.16,6082.42 4824.12,6082.35 4824.07,6082.27L4824.07,6082.27L4824.05,6082.24L4823.99,6082.13L4823.98,6082.11L4823.97,6082.1L4823.92,6082.01L4823.89,6081.96L4823.89,6081.94L4823.87,6081.92L4823.81,6081.8L4823.8,6081.78C4823.73,6081.64 4823.66,6081.49 4823.6,6081.35L4823.59,6081.34L4823.57,6081.31L4823.53,6081.2L4823.52,6081.18L4823.51,6081.16L4823.48,6081.08L4823.46,6081.02L4823.45,6081L4823.44,6080.97L4823.4,6080.85L4823.39,6080.83L4823.39,6080.83C4823.31,6080.62 4823.25,6080.41 4823.19,6080.21L4823.19,6080.2L4823.16,6080.07L4823.14,6080.03L4823.14,6080.02C4823.1,6079.84 4823.06,6079.66 4823.03,6079.48L4823.03,6079.46L4823.02,6079.45L4823.02,6079.42L4823,6079.32L4822.99,6079.26L4822.99,6079.24L4822.99,6079.22L4822.98,6079.15L4822.97,6079.06L4822.96,6079.04L4822.96,6079.03L4822.96,6078.99C4822.88,6078.28 4822.9,6077.56 4823,6076.87L4823.01,6076.86L4823.02,6076.78L4823.03,6076.71L4823.03,6076.7C4823.15,6076.03 4823.35,6075.38 4823.63,6074.75L4823.7,6074.61L4823.71,6074.58L4823.72,6074.57L4823.75,6074.51L4823.79,6074.43L4823.8,6074.41L4823.8,6074.39L4823.86,6074.28L4823.88,6074.25L4823.88,6074.24C4823.96,6074.11 4824.04,6073.97 4824.12,6073.84L4824.12,6073.83L4824.14,6073.81L4824.2,6073.7L4824.22,6073.68L4824.23,6073.66L4824.27,6073.61L4824.31,6073.54L4824.32,6073.52L4824.34,6073.5L4824.4,6073.41L4824.43,6073.37L4824.43,6073.36C4824.56,6073.19 4824.69,6073.02 4824.83,6072.85L4824.84,6072.85L4824.88,6072.8ZM5315.25,5856.67C5305.09,5845.13 5289.91,5841.88 5277,5848.78L4955.23,6020.84L5316.35,5879.65C5321.7,5877.56 5327.21,5876.51 5332.68,5876.46L5315.25,5856.67ZM5273.82,5809.63C5262.61,5796.89 5245.41,5794.45 5232.02,5803.93L4940.92,6010.14L5269.37,5834.51C5276.25,5830.83 5283.56,5829 5290.82,5828.93L5273.82,5809.63ZM5232.86,5763.1C5220.48,5749.05 5201.05,5747.79 5187.5,5760.29L4928.78,5998.91L5222.67,5790.73C5230.94,5784.87 5240.18,5781.95 5249.37,5781.86L5232.86,5763.1ZM5208.37,5735.3L5192.38,5717.14C5185.83,5709.7 5177.07,5705.48 5167.92,5705.61C5158.75,5705.74 5150.06,5710.22 5143.66,5717.86L4918.35,5986.52L5176.53,5748.4C5185.91,5739.75 5197.15,5735.41 5208.37,5735.3Z" style="fill:url(#_Linear1);"/>
                    </g>
                </g>
            </g>
        </g>
    </g>
    <defs>
        <linearGradient id="_Linear1" x1="0" y1="0" x2="1" y2="0" gradientUnits="userSpaceOnUse" gradientTransform="matrix(260,-364.332,364.332,260,4956,6086.18)"><stop offset="0" style="stop-color:rgb(197,79,246);stop-opacity:1"/><stop offset="0.52" style="stop-color:rgb(252,63,121);stop-opacity:1"/><stop offset="1" style="stop-color:rgb(252,160,94);stop-opacity:1"/></linearGradient>
    </defs>
</svg>
