<?xml version="1.0" encoding="UTF-8" standalone="no"?>
<!DOCTYPE svg PUBLIC "-//W3C//DTD SVG 1.1//EN" "http://www.w3.org/Graphics/SVG/1.1/DTD/svg11.dtd">
<svg width="100%" height="100%" viewBox="0 0 800 600" version="1.1" xmlns="http://www.w3.org/2000/svg" xmlns:xlink="http://www.w3.org/1999/xlink" xml:space="preserve" xmlns:serif="http://www.serif.com/" style="fill-rule:evenodd;clip-rule:evenodd;stroke-linejoin:round;stroke-miterlimit:2;">
    <path d="M87.203,120.395C87.203,120.395 244.105,225.584 330.542,283.533C372.562,311.703 427.431,311.721 469.468,283.577C556.368,225.397 714.617,119.449 714.617,119.449C726.083,111.772 729.159,96.232 721.483,84.766C713.807,73.301 698.266,70.224 686.801,77.901C686.801,77.901 528.552,183.849 441.652,242.028C416.456,258.897 383.57,258.887 358.385,242.002C271.948,184.054 115.046,78.864 115.046,78.864C103.585,71.181 88.042,74.247 80.359,85.708C72.676,97.169 75.742,112.711 87.203,120.395Z"/>
    <g transform="matrix(1,0,0,1,-0.916571,201.325)">
        <path d="M87.203,120.395C87.203,120.395 244.105,225.584 330.542,283.533C372.562,311.703 427.431,311.721 469.468,283.577C556.368,225.397 714.617,119.449 714.617,119.449C726.083,111.772 729.159,96.232 721.483,84.766C713.807,73.301 698.266,70.224 686.801,77.901C686.801,77.901 528.552,183.849 441.652,242.028C416.456,258.897 383.57,258.887 358.385,242.002C271.948,184.054 115.046,78.864 115.046,78.864C103.585,71.181 88.042,74.247 80.359,85.708C72.676,97.169 75.742,112.711 87.203,120.395Z"/>
    </g>
</svg>
