<?xml version="1.0" encoding="UTF-8" standalone="no"?>
<!DOCTYPE svg PUBLIC "-//W3C//DTD SVG 1.1//EN" "http://www.w3.org/Graphics/SVG/1.1/DTD/svg11.dtd">
<svg width="100%" height="100%" viewBox="0 0 1502 821" version="1.1" xmlns="http://www.w3.org/2000/svg" xmlns:xlink="http://www.w3.org/1999/xlink" xml:space="preserve" xmlns:serif="http://www.serif.com/" style="fill-rule:evenodd;clip-rule:evenodd;stroke-linejoin:round;stroke-miterlimit:2;">
    <g transform="matrix(1,0,0,1,-498,-1179)">
        <path d="M2000,1179.86L2000,1191.5C1959.21,1243.92 1913.45,1296.59 1863.39,1348.54C1576.76,1645.89 1149.21,1919.43 701.848,1985.1L702.766,1985.03C737.821,1982.24 772.816,1978.74 807.716,1974.42C879.376,1965.57 950.635,1953.38 1021.1,1937.6C1179.15,1902.19 1333.44,1848.6 1477.56,1774.41C1512.89,1756.22 1547.59,1736.81 1581.53,1716.15C1619.69,1692.92 1656.89,1668.13 1692.94,1641.75C1733.78,1611.88 1773.13,1579.99 1810.69,1546.09C1853.75,1507.22 1894.46,1465.72 1932.27,1421.71C1956.06,1394.02 1978.7,1365.33 2000,1335.67L2000,1347.77C1761.71,1673.11 1338.2,1924.98 770.963,1985.89C1380.59,1952.76 1763.13,1801.02 1979.74,1529.72C1986.69,1521.03 1993.46,1512.2 2000,1503.25L2000,1515.24C1995.2,1521.65 1990.3,1527.96 1985.32,1534.21C1777.39,1794.63 1417.37,1945.92 851.237,1987.91C1130.31,1979.11 1353.62,1957.66 1531.96,1917.06C1747.5,1867.99 1897.17,1790.98 2000,1674.31L2000,1684.97C1896.54,1799.35 1747.18,1875.42 1533.54,1924.05C1374.52,1960.25 1179.8,1981.28 941.761,1991.69C1230.85,1989.25 1454.36,1981.59 1627.14,1957.51C1794.37,1934.21 1913.92,1895.58 1999.34,1831.18L2000,1830.67L2000,1839.59C1914.07,1902.99 1794.52,1941.43 1628.12,1964.62C1376.03,1999.75 1016.06,2000 502.025,2000C500.053,2000 498.453,1998.39 498.453,1996.41C498.453,1994.43 500.053,1992.83 502.025,1992.83L503.535,1992.83C1018.47,1992.21 1530.68,1683.38 1858.25,1343.55C1910.45,1289.4 1957.96,1234.47 2000,1179.86Z" style="fill:url(#_Linear1);"/>
    </g>
    <defs>
        <linearGradient id="_Linear1" x1="0" y1="0" x2="1" y2="0" gradientUnits="userSpaceOnUse" gradientTransform="matrix(1711.68,4.54747e-13,-3.41061e-13,1283.76,500,2000)"><stop offset="0" style="stop-color:rgb(117,51,152);stop-opacity:0"/><stop offset="0.26" style="stop-color:rgb(141,61,143);stop-opacity:0.11"/><stop offset="0.52" style="stop-color:rgb(214,92,116);stop-opacity:0.43"/><stop offset="1" style="stop-color:rgb(239,198,116);stop-opacity:1"/></linearGradient>
    </defs>
</svg>
